# File created by Blade
# Date/Time:  Thu Jan 22 19:49:10 2015
#---------------------------------------------------------
:version 1.10
:name HOM
:units
  mass 1.0
  length 1.000000
  angle deg
:documentation
     Acclaim Skeleton File
:root
   axis xyz
   order TX TY TZ RX RY RZ
   position 0.000000 0.000000 0.000000
   orientation 0 0 0
:bonedata
   begin
      id 1
      name RightUpLeg_dum
      direction -1.000000 0.000000 0.000000
      length 4.478084
      axis 0.0 0.0 0.0 xyz
   end
   begin
      id 2
      name LeftUpLeg_dum
      direction 1.000000 0.000000 0.000000
      length 4.478084
      axis 0.0 0.0 0.0 xyz
   end
   begin
      id 3
      name Spine_dum
      direction 0.000000 1.000000 0.000000
      length 6.068208
      axis 0.0 0.0 0.0 xyz
   end
   begin
      id 4
      name RightUpLeg
      direction 0.000000 -1.000000 0.000000
      length 16.405774
      axis 0.0 0.0 0.0 xyz
      dof rx ry rz
   end
   begin
      id 5
      name RightLeg
      direction 0.000000 -1.000000 0.000000
      length 14.644143
      axis 0.0 0.0 0.0 xyz
      dof rx ry rz
   end
   begin
      id 6
      name RightFoot
      direction 0.000000 -0.258819 0.965926
      length 5.806150
      axis 15.0 0.0 0.0 xyz
      dof rx ry rz
   end
   begin
      id 7
      name RightToeBase
      direction 0.000000 0.000000 1.000000
      length 2.952750
      axis 0.0 0.0 0.0 xyz
      dof rx ry rz
   end
   begin
      id 8
      name LeftUpLeg
      direction 0.000000 -1.000000 0.000000
      length 16.405774
      axis 0.0 0.0 0.0 xyz
      dof rx ry rz
   end
   begin
      id 9
      name LeftLeg
      direction 0.000000 -1.000000 0.000000
      length 14.644143
      axis 0.0 0.0 0.0 xyz
      dof rx ry rz
   end
   begin
      id 10
      name LeftFoot
      direction 0.000000 -0.258819 0.965926
      length 5.806150
      axis 15.0 0.0 0.0 xyz
      dof rx ry rz
   end
   begin
      id 11
      name LeftToeBase
      direction 0.000000 0.000000 1.000000
      length 2.952750
      axis 0.0 0.0 0.0 xyz
      dof rx ry rz
   end
   begin
      id 12
      name Spine
      direction 0.000000 1.000000 0.000000
      length 0.000000
      axis 0.0 0.0 0.0 xyz
      dof rx ry rz
   end
   begin
      id 13
      name Spine_dum1
      direction 0.000000 1.000000 0.000000
      length 10.013923
      axis 0.0 0.0 0.0 xyz
   end
   begin
      id 14
      name Spine_dum2
      direction 0.000000 1.000000 0.000000
      length 10.013923
      axis 0.0 0.0 0.0 xyz
   end
   begin
      id 15
      name Spine_dum3
      direction 0.000000 1.000000 0.000000
      length 15.777476
      axis 0.0 0.0 0.0 xyz
   end
   begin
      id 16
      name RightShoulder
      direction -1.000000 0.000000 0.000000
      length 7.190220
      axis 0.0 0.0 90.0 xyz
      dof rx ry rz
   end
   begin
      id 17
      name RightArm
      direction -1.000000 0.000000 0.000000
      length 10.177469
      axis 0.0 0.0 90.0 xyz
      dof rx ry rz
   end
   begin
      id 18
      name RightForeArm
      direction -1.000000 0.000000 0.000000
      length 8.392114
      axis 0.0 0.0 90.0 xyz
      dof ry rz rx
   end
   begin
      id 19
      name RightHand
      direction -1.000000 0.000000 0.000000
      length 0.000000
      axis 0.0 0.0 90.0 xyz
      dof rx ry rz
   end
   begin
      id 20
      name RightHand_dum1
      direction -1.000000 0.000000 0.000000
      length 3.937000
      axis 0.0 0.0 90.0 xyz
   end
   begin
      id 21
      name RightHand_dum2
      direction 0.000000 0.000000 0.000000
      length 0.000000
      axis 0.0 0.0 90.0 xyz
   end
   begin
      id 22
      name RightHandThumb1
      direction 0.000000 0.000000 1.000000
      length 3.937000
      axis 0.0 0.0 90.0 xyz
      dof rx rz ry
   end
   begin
      id 23
      name LeftShoulder
      direction 1.000000 0.000000 0.000000
      length 7.190220
      axis 0.0 0.0 -90.0 xyz
      dof rx ry rz
   end
   begin
      id 24
      name LeftArm
      direction 1.000000 0.000000 0.000000
      length 10.177469
      axis 0.0 0.0 -90.0 xyz
      dof rx ry rz
   end
   begin
      id 25
      name LeftForeArm
      direction 1.000000 0.000000 0.000000
      length 8.392114
      axis 0.0 0.0 -90.0 xyz
      dof ry rz rx
   end
   begin
      id 26
      name LeftHand
      direction 1.000000 0.000000 0.000000
      length 0.000000
      axis 0.0 0.0 -90.0 xyz
      dof rx ry rz
   end
   begin
      id 27
      name LeftHand_dum1
      direction 1.000000 0.000000 0.000000
      length 3.937000
      axis 0.0 0.0 -90.0 xyz
   end
   begin
      id 28
      name LeftHand_dum2
      direction 0.000000 0.000000 0.000000
      length 0.000000
      axis 0.0 0.0 -90.0 xyz
   end
   begin
      id 29
      name LeftHandThumb1
      direction 0.000000 0.000000 1.000000
      length 3.937000
      axis 0.0 0.0 -90.0 xyz
      dof rx rz ry
   end
   begin
      id 30
      name Head
      direction 0.000000 1.000000 0.000000
      length 4.527550
      axis 0.0 0.0 0.0 xyz
      dof rx ry rz
   end
:hierarchy
   begin
      root RightUpLeg_dum LeftUpLeg_dum Spine_dum
      RightUpLeg_dum RightUpLeg
      LeftUpLeg_dum LeftUpLeg
      Spine_dum Spine
      RightUpLeg RightLeg
      RightLeg RightFoot
      RightFoot RightToeBase
      LeftUpLeg LeftLeg
      LeftLeg LeftFoot
      LeftFoot LeftToeBase
      Spine Spine_dum1 Spine_dum2 Spine_dum3
      Spine_dum1 RightShoulder
      Spine_dum2 LeftShoulder
      Spine_dum3 Head
      RightShoulder RightArm
      RightArm RightForeArm
      RightForeArm RightHand
      RightHand RightHand_dum1 RightHand_dum2
      RightHand_dum2 RightHandThumb1
      LeftShoulder LeftArm
      LeftArm LeftForeArm
      LeftForeArm LeftHand
      LeftHand LeftHand_dum1 LeftHand_dum2
      LeftHand_dum2 LeftHandThumb1
   end

# File created by Blade
# Date/Time:  Thu Jan 22 19:49:01 2015
# Frame Rate: 120.000 fps
#------------------------------------------------------
:FULLY-SPECIFIED
:DEGREES
723
root -2.722307 4.305475 -7.072546 -23.671488 2.928565 3.861077
RightUpLeg -112.815987 -25.762578 -12.915206
RightLeg 154.883776 -0.000000 -0.000000
RightFoot -19.519514 -6.537545 -8.917961
RightToeBase -9.627968 -0.000000 0.000000
LeftUpLeg -102.913156 27.579466 26.464301
LeftLeg 146.610078 -0.000000 -0.000000
LeftFoot -15.338317 -6.719912 -1.968425
LeftToeBase -8.725825 -0.000000 0.000000
Spine 40.715467 3.752922 -7.826914
RightShoulder -9.009114 -21.515760 -5.453930
RightArm 17.424070 -42.441212 74.622586
RightForeArm 47.599175 -0.000000 29.581505
RightHand -10.186808 -0.000000 5.931173
RightHandThumb1 -24.326973 -0.000000 -32.862282
LeftShoulder -17.612004 10.340569 13.895124
LeftArm 0.841972 16.795828 -89.275590
LeftForeArm 11.657042 0.000000 5.354191
LeftHand 0.953338 -0.000000 -8.196701
LeftHandThumb1 -26.253704 0.000000 33.147579
Head -6.924320 1.074994 5.382529
724
root -2.681981 4.300270 -7.134618 -23.975227 2.847056 3.801861
RightUpLeg -112.678011 -25.700778 -12.918344
RightLeg 154.614587 -0.000000 -0.000000
RightFoot -19.128199 -6.527675 -9.207161
RightToeBase -9.998299 -0.000000 0.000000
LeftUpLeg -102.963088 27.449299 26.234509
LeftLeg 146.575322 -0.000000 -0.000000
LeftFoot -15.146434 -6.491099 -1.837871
LeftToeBase -8.937756 -0.000000 0.000000
Spine 40.610596 3.733767 -7.842987
RightShoulder -9.109866 -21.681311 -5.473117
RightArm 17.619474 -42.342063 74.458546
RightForeArm 47.668465 0.000000 30.135650
RightHand -10.750001 -0.000000 4.782109
RightHandThumb1 -24.326973 -0.000000 -32.862282
LeftShoulder -17.617183 10.968563 14.049234
LeftArm 0.667231 17.280479 -89.448997
LeftForeArm 11.953884 0.000000 6.294321
LeftHand 0.880164 -0.000000 -8.232509
LeftHandThumb1 -26.253704 0.000000 33.147579
Head -6.943915 1.024711 4.982903
725
root -2.640792 4.300954 -7.202390 -24.230928 2.732814 3.804088
RightUpLeg -112.610528 -25.580988 -12.897785
RightLeg 154.318736 -0.000000 -0.000000
RightFoot -18.754206 -6.592848 -9.554322
RightToeBase -10.151764 -0.000000 0.000000
LeftUpLeg -102.985591 27.391307 25.936626
LeftLeg 146.515801 -0.000000 -0.000000
LeftFoot -14.963929 -6.271795 -1.696919
LeftToeBase -9.009752 -0.000000 0.000000
Spine 40.484443 3.732583 -7.960197
RightShoulder -9.199774 -21.759834 -5.480160
RightArm 17.823368 -42.145126 74.386585
RightForeArm 47.632351 -0.000000 30.447929
RightHand -11.282306 0.000000 4.049123
RightHandThumb1 -24.326973 -0.000000 -32.862282
LeftShoulder -17.667184 11.363992 14.095153
LeftArm 0.496855 17.927920 -89.552583
LeftForeArm 12.262578 -0.000000 6.810327
LeftHand 0.814383 -0.000000 -7.970064
LeftHandThumb1 -26.253704 0.000000 33.147579
Head -7.042017 1.032130 4.717874
726
root -2.599153 4.303072 -7.273972 -24.455223 2.597182 3.817289
RightUpLeg -112.556859 -25.428757 -12.875878
RightLeg 154.014038 -0.000000 -0.000000
RightFoot -18.412368 -6.628109 -9.822571
RightToeBase -10.271438 -0.000000 0.000000
LeftUpLeg -103.003110 27.355976 25.630774
LeftLeg 146.444656 -0.000000 -0.000000
LeftFoot -14.781313 -6.058642 -1.584088
LeftToeBase -9.136255 -0.000000 0.000000
Spine 40.328647 3.714247 -8.097895
RightShoulder -9.246911 -21.759046 -5.579069
RightArm 17.973212 -41.965701 74.449687
RightForeArm 47.400833 -0.000000 30.579091
RightHand -11.583093 -0.000000 3.471359
RightHandThumb1 -24.326973 -0.000000 -32.862282
LeftShoulder -17.792484 11.775414 14.042244
LeftArm 0.501618 19.070994 -89.617250
LeftForeArm 11.881045 -0.000000 7.030050
LeftHand 0.736106 -0.000000 -7.177820
LeftHandThumb1 -26.253704 0.000000 33.147579
Head -7.106605 1.137810 4.551678
727
root -2.553072 4.318302 -7.352240 -24.733296 2.454547 3.939080
RightUpLeg -112.422922 -25.242568 -12.977902
RightLeg 153.674629 -0.000000 -0.000000
RightFoot -18.077786 -6.600127 -10.113106
RightToeBase -10.571592 -0.000000 0.000000
LeftUpLeg -102.841728 27.301061 25.269199
LeftLeg 146.351130 -0.000000 -0.000000
LeftFoot -14.632688 -5.853039 -1.559746
LeftToeBase -9.082425 -0.000000 0.000000
Spine 40.302889 3.763367 -8.358139
RightShoulder -9.243533 -21.614380 -5.685866
RightArm 18.040557 -41.843439 74.561037
RightForeArm 47.348992 -0.000000 30.661100
RightHand -11.753545 -0.000000 2.803660
RightHandThumb1 -24.326973 -0.000000 -32.862282
LeftShoulder -17.844672 11.967287 14.038338
LeftArm 0.438129 19.448089 -89.811158
LeftForeArm 11.750629 -0.000000 6.927772
LeftHand 0.795976 -0.000000 -6.261321
LeftHandThumb1 -26.253704 0.000000 33.147579
Head -7.339724 1.237647 4.525598
728
root -2.503902 4.327686 -7.429035 -24.921678 2.249765 3.950659
RightUpLeg -112.356325 -25.075758 -12.932747
RightLeg 153.316907 -0.000000 -0.000000
RightFoot -17.773559 -6.551789 -10.395900
RightToeBase -10.887042 -0.000000 0.000000
LeftUpLeg -102.799704 27.322757 25.048591
LeftLeg 146.288971 -0.000000 -0.000000
LeftFoot -14.527661 -5.708104 -1.734280
LeftToeBase -8.970039 -0.000000 0.000000
Spine 40.126581 3.779960 -8.398316
RightShoulder -9.282197 -21.560541 -5.867728
RightArm 18.167594 -41.609464 74.646548
RightForeArm 47.064731 0.000000 30.570480
RightHand -11.891179 0.000000 2.880842
RightHandThumb1 -24.326973 -0.000000 -32.862282
LeftShoulder -17.731405 12.144865 14.038702
LeftArm 0.272933 19.363655 -90.171802
LeftForeArm 11.533759 -0.000000 6.777982
LeftHand 1.055415 -0.000000 -5.649870
LeftHandThumb1 -26.253704 0.000000 33.147579
Head -7.394027 1.259740 4.444200
